<svg width="26" height="26" viewBox="0 0 26 26" fill="none" xmlns="http://www.w3.org/2000/svg">
<rect width="26" height="26" rx="5" fill="#739953"/>
<path d="M21.3302 0H4.66979C2.09478 0 0 2.09478 0 4.66979V21.3302C0 23.9052 2.09478 26 4.66979 26H21.3302C23.9052 26 26 23.9052 26 21.3302V4.66979C26 2.09478 23.9052 0 21.3302 0ZM21.9725 20.2902H13.6398C12.9074 22.4581 9.83089 22.4614 9.09746 20.2902H4.02746C3.0158 20.2902 3.01554 18.7608 4.02746 18.7608H9.09746C9.82978 16.5929 12.9064 16.5896 13.6398 18.7608H21.9725C22.9842 18.7608 22.9845 20.2902 21.9725 20.2902ZM21.9725 13.7647H20.1653C19.4329 15.9326 16.3564 15.9359 15.6229 13.7647H4.02746C3.0158 13.7647 3.01554 12.2353 4.02746 12.2353H15.623C16.3553 10.0674 19.4319 10.0641 20.1653 12.2353H21.9726C22.9842 12.2353 22.9845 13.7647 21.9725 13.7647ZM21.9725 7.23922H10.377C9.64468 9.40707 6.56815 9.41038 5.83471 7.23922H4.02746C3.0158 7.23922 3.01554 5.70979 4.02746 5.70979H5.83471C6.56703 3.54194 9.64361 3.53864 10.377 5.70979H21.9725C22.9842 5.70979 22.9845 7.23922 21.9725 7.23922Z" fill="white"/>
<path d="M11.3686 18.6587C10.2219 18.6587 10.2225 20.392 11.3686 20.392C12.5152 20.3921 12.5146 18.6587 11.3686 18.6587Z" fill="white"/>
<path d="M8.10588 5.60791C6.95919 5.60791 6.9598 7.34123 8.10588 7.34123C9.25252 7.34128 9.25191 5.60791 8.10588 5.60791V5.60791Z" fill="white"/>
<path d="M17.894 12.1333C16.7473 12.1333 16.7479 13.8666 17.894 13.8666C19.0407 13.8667 19.0401 12.1333 17.894 12.1333V12.1333Z" fill="white"/>
</svg>
