<svg width="26" height="26" viewBox="0 0 26 26" fill="none" xmlns="http://www.w3.org/2000/svg">
<rect width="26" height="26" rx="5" fill="white"/>
<path fill-rule="evenodd" clip-rule="evenodd" d="M10.4524 9.37959H20.2592C21.2615 9.37959 22.0741 10.1921 22.0741 11.1944V20.2686C22.0741 21.2709 21.2615 22.0834 20.2592 22.0834H5.74061C4.73831 22.0834 3.92578 21.2709 3.92578 20.2686V11.1944C3.92578 10.2606 4.63099 9.49159 5.53786 9.39078L19.0148 4L19.6888 5.68503L10.4524 9.37959ZM5.74073 11.1944V20.2685H20.2594V11.1944H5.74073ZM15.0259 15.7948V17.3142H19.0776V15.7948H15.0259ZM14.8149 14.824V13.0092H19.352V14.824H14.8149ZM6.64818 15.7315C6.64818 17.7361 8.27323 19.3611 10.2778 19.3611C12.2824 19.3611 13.9075 17.7361 13.9075 15.7315C13.9075 13.7269 12.2824 12.1018 10.2778 12.1018C8.27323 12.1018 6.64818 13.7269 6.64818 15.7315ZM10.2779 17.5463C11.2802 17.5463 12.0927 16.7338 12.0927 15.7315C12.0927 14.7292 11.2802 13.9167 10.2779 13.9167C9.27561 13.9167 8.46308 14.7292 8.46308 15.7315C8.46308 16.7338 9.27561 17.5463 10.2779 17.5463ZM9.37026 15.7315C9.37026 16.2326 9.77652 16.6389 10.2777 16.6389C10.7788 16.6389 11.1851 16.2326 11.1851 15.7315C11.1851 15.2303 10.7788 14.8241 10.2777 14.8241C9.77652 14.8241 9.37026 15.2303 9.37026 15.7315Z" fill="#739953"/>
</svg>
