<svg width="28" height="28" viewBox="0 0 28 28" fill="none" xmlns="http://www.w3.org/2000/svg">
<path fill-rule="evenodd" clip-rule="evenodd" d="M10.7247 9.33336H23.3334C24.622 9.33336 25.6667 10.378 25.6667 11.6667V23.3334C25.6667 24.622 24.622 25.6667 23.3334 25.6667H4.66671C3.37804 25.6667 2.33337 24.622 2.33337 23.3334V11.6667C2.33337 10.4662 3.24006 9.47737 4.40603 9.34776L21.7334 2.41681L22.6 4.58325L10.7247 9.33336ZM4.66674 11.6667V23.3334H23.3334V11.6667H4.66674ZM16.6047 17.5814V19.5349H21.814V17.5814H16.6047ZM16.3334 16.3334V14H22.1667V16.3334H16.3334ZM5.83337 17.5C5.83337 20.0773 7.92271 22.1667 10.5 22.1667C13.0774 22.1667 15.1667 20.0773 15.1667 17.5C15.1667 14.9227 13.0774 12.8333 10.5 12.8333C7.92271 12.8333 5.83337 14.9227 5.83337 17.5ZM10.5001 19.8334C11.7887 19.8334 12.8334 18.7887 12.8334 17.5C12.8334 16.2114 11.7887 15.1667 10.5001 15.1667C9.21141 15.1667 8.16674 16.2114 8.16674 17.5C8.16674 18.7887 9.21141 19.8334 10.5001 19.8334ZM9.33337 17.5C9.33337 18.1444 9.85571 18.6667 10.5 18.6667C11.1444 18.6667 11.6667 18.1444 11.6667 17.5C11.6667 16.8557 11.1444 16.3334 10.5 16.3334C9.85571 16.3334 9.33337 16.8557 9.33337 17.5Z" fill="#739953"/>
</svg>
