<svg width="24" height="24" viewBox="0 0 24 24" fill="none" xmlns="http://www.w3.org/2000/svg">
<path fill-rule="evenodd" clip-rule="evenodd" d="M8.7246 7.3333H21.3333C22.6219 7.3333 23.6666 8.37797 23.6666 9.66664V21.3333C23.6666 22.622 22.6219 23.6666 21.3333 23.6666H2.66659C1.37792 23.6666 0.333252 22.622 0.333252 21.3333V9.66664C0.333252 8.46609 1.23994 7.47731 2.40591 7.3477L19.7333 0.416748L20.5999 2.58319L8.7246 7.3333ZM2.66662 9.66662V21.3333H21.3333V9.66662H2.66662ZM14.6046 15.5814V17.5348H19.8139V15.5814H14.6046ZM14.3332 14.3333V12H20.1666V14.3333H14.3332ZM3.83325 15.5C3.83325 18.0773 5.92259 20.1666 8.49992 20.1666C11.0772 20.1666 13.1666 18.0773 13.1666 15.5C13.1666 12.9226 11.0772 10.8333 8.49992 10.8333C5.92259 10.8333 3.83325 12.9226 3.83325 15.5ZM8.49995 17.8333C9.78862 17.8333 10.8333 16.7886 10.8333 15.5C10.8333 14.2113 9.78862 13.1666 8.49995 13.1666C7.21129 13.1666 6.16662 14.2113 6.16662 15.5C6.16662 16.7886 7.21129 17.8333 8.49995 17.8333ZM7.33325 15.5C7.33325 16.1443 7.85559 16.6666 8.49992 16.6666C9.14425 16.6666 9.66659 16.1443 9.66659 15.5C9.66659 14.8556 9.14425 14.3333 8.49992 14.3333C7.85559 14.3333 7.33325 14.8556 7.33325 15.5Z" fill="#F3D245"/>
</svg>
