<svg width="26" height="26" viewBox="0 0 26 26" fill="none" xmlns="http://www.w3.org/2000/svg">
<path fill-rule="evenodd" clip-rule="evenodd" d="M23.9359 20.3539C24.6813 18.9487 24.9998 16.6827 24.9998 12.9967C24.9998 9.32532 24.6843 7.07253 23.931 5.62957C23.176 4.13115 22.2805 3.65554 20.5034 3.54139C19.2902 3.45093 16.2749 3.3999 13.0026 3.3999C9.7232 3.3999 6.70662 3.45091 5.48431 3.54209C3.71713 3.65582 2.82147 4.13247 2.05982 5.63505C1.31739 7.07304 0.999512 9.33683 0.999512 13.0101C0.999512 16.6625 1.31893 18.9377 2.06634 20.371C2.8181 21.8542 3.69947 22.3251 5.48169 22.4628C6.7626 22.5453 9.94991 22.6002 13.0026 22.6002C16.0484 22.6002 19.2342 22.5452 20.5034 22.4637C22.302 22.3252 23.1832 21.8535 23.9359 20.3539ZM20.3664 5.93688C21.478 6.00834 21.6841 6.11824 22.0365 6.81976C22.5494 7.797 22.8183 9.70949 22.8183 13.0104C22.8183 16.2863 22.548 18.2093 22.0389 19.1696C21.6853 19.8733 21.4806 19.9828 20.3638 20.0689C19.1625 20.146 16.0077 20.2004 13.0029 20.2004C9.99136 20.2004 6.8349 20.146 5.6221 20.068C4.51916 19.9827 4.31149 19.8718 3.96576 19.1897C3.45316 18.2066 3.18167 16.2728 3.18167 12.9969C3.18167 9.72302 3.45172 7.79987 3.96157 6.8123C4.31269 6.11971 4.52181 6.00841 5.62217 5.93757C6.78726 5.85071 9.77548 5.80018 13.0029 5.80018C16.2234 5.80018 19.2102 5.85073 20.3664 5.93688ZM10.8178 9.39983L16.2724 12.9999L10.8178 16.5999V9.39983Z" fill="#5D3E81"/>
</svg>
