<svg width="26" height="20" viewBox="0 0 26 20" fill="none" xmlns="http://www.w3.org/2000/svg">
<path fill-rule="evenodd" clip-rule="evenodd" d="M24.6954 17.1496C25.4926 15.7834 25.8332 13.5804 25.8332 9.99681C25.8332 6.42749 25.4958 4.23731 24.6901 2.83445C23.8827 1.37767 22.925 0.915285 21.0245 0.804299C19.7271 0.716357 16.5025 0.666748 13.0029 0.666748C9.49588 0.666748 6.26986 0.716339 4.96268 0.804988C3.07281 0.915549 2.11497 1.37896 1.30042 2.83978C0.506452 4.2378 0.166504 6.43868 0.166504 10.0099C0.166504 13.5608 0.508098 15.7728 1.3074 17.1662C2.11135 18.6082 3.05392 19.066 4.95988 19.1999C6.32972 19.28 9.73832 19.3334 13.0029 19.3334C16.2602 19.3334 19.6672 19.28 21.0245 19.2008C22.948 19.066 23.8904 18.6075 24.6954 17.1496ZM20.8777 3.13298C22.0664 3.20245 22.2869 3.30931 22.6637 3.99132C23.2123 4.94141 23.4998 6.80075 23.4998 10.0099C23.4998 13.1947 23.2108 15.0643 22.6663 15.9979C22.2881 16.682 22.0692 16.7886 20.8749 16.8723C19.5903 16.9472 16.2163 17.0001 13.0029 17.0001C9.78232 17.0001 6.4067 16.9472 5.10971 16.8714C3.93018 16.7885 3.7081 16.6806 3.33836 16.0175C2.79018 15.0617 2.49984 13.1816 2.49984 9.99681C2.49984 6.8139 2.78863 4.9442 3.33388 3.98407C3.70937 3.31073 3.93302 3.20253 5.10978 3.13365C6.35576 3.04921 9.55145 3.00008 13.0029 3.00008C16.447 3.00008 19.6412 3.04922 20.8777 3.13298ZM10.6665 6.50008L16.4998 10.0001L10.6665 13.5001V6.50008Z" fill="#F3D245"/>
</svg>
