<svg width="52" height="40" viewBox="0 0 52 40" fill="none" xmlns="http://www.w3.org/2000/svg">
<path fill-rule="evenodd" clip-rule="evenodd" d="M49.3908 34.299C50.9851 31.5666 51.6663 27.1607 51.6663 19.9934C51.6663 12.8548 50.9915 8.47444 49.3802 5.66872C47.7653 2.75516 45.85 1.83039 42.049 1.60841C39.4542 1.43253 33.005 1.33331 26.0059 1.33331C18.9918 1.33331 12.5397 1.43249 9.92535 1.60979C6.14561 1.83092 4.22993 2.75773 2.60085 5.67938C1.0129 8.47542 0.333008 12.8772 0.333008 20.0196C0.333008 27.1214 1.0162 31.5453 2.6148 34.3322C4.2227 37.2162 6.10785 38.1318 9.91975 38.3996C12.6594 38.5599 19.4766 38.6666 26.0059 38.6666C32.5205 38.6666 39.3344 38.5599 42.049 38.4013C45.896 38.1319 47.7808 37.2147 49.3908 34.299ZM41.7555 6.26579C44.133 6.40473 44.5739 6.61844 45.3276 7.98247C46.4248 9.88264 46.9998 13.6013 46.9998 20.0196C46.9998 26.3893 46.4217 30.1284 45.3327 31.9956C44.5765 33.3639 44.1386 33.577 41.7501 33.7444C39.1807 33.8943 32.4328 34 26.0061 34C19.5648 34 12.8136 33.8943 10.2196 33.7426C7.86053 33.5768 7.41636 33.361 6.67689 32.0349C5.58051 30.1232 4.99984 26.3631 4.99984 19.9935C4.99984 13.6276 5.57742 9.88823 6.66793 7.96797C7.41891 6.62129 7.8662 6.40488 10.2197 6.26714C12.7117 6.09824 19.1031 5.99999 26.0061 5.99999C32.8942 5.99999 39.2826 6.09827 41.7555 6.26579ZM21.333 13L32.9997 20L21.333 27V13Z" fill="#5D3E81"/>
</svg>
